<svg width="286.34" height="569" xmlns="http://www.w3.org/2000/svg">
 <defs>
  <style>.cls-1{fill:#eb5a26;}.cls-2{fill:#982221;}</style>
 </defs>
 <title>ballball</title>
 <g>
  <title>background</title>
  <rect x="-1" y="-1" width="288.34" height="571" id="canvas_background" fill="none"/>
 </g>
 <g>
  <title>Layer 1</title>
  <rect class="cls-1" x="-7.83" y="-30.3" width="303.85" height="664.56" id="svg_1"/>
  <path class="cls-2" d="m286.34,558.56l-86.06,0c2.27,-17.94 11.06,-33.07 23.19,-46.79s25.82,-26.55 33.18,-43.69c8.58,-20 7.34,-43.22 1,-63.68c-12.05,-38.62 -47.47,-66.07 -54.44,-106.53a86.69,86.69 0 0 1 -1.29,-12.87l84.43,0a5.24,5.24 0 0 0 0,-10.44l-84,0a83.9,83.9 0 0 1 14.8,-39.49c10.49,-15 24.52,-27.38 33.93,-43.23c22.49,-37.87 7,-82.22 -15.74,-115.85c-11.13,-16.47 -23.66,-32.55 -29.52,-51.83a99.25,99.25 0 0 1 -3.64,-23.85c-3.39,-0.24 -11,-0.13 -11,-0.13c0.62,19 6.67,37.71 16.48,54.08c10,16.67 22.54,31.72 31.41,49.08c9.86,19.3 15.46,43.07 10.2,64.51c-4.52,18.4 -17.41,32.14 -29.37,46.14c-12.2,14.26 -22.9,29.63 -26.9,48.27a95.61,95.61 0 0 0 -1.78,12.3l-43.05,0l0,-274.4l-10,-0.16l0,274.56l-45,0a90.63,90.63 0 0 0 -13.37,-41.41c-9.55,-15.3 -23.11,-27.44 -33.34,-42.2c-12.36,-17.82 -15.46,-37.95 -11.38,-59.14c4,-20.48 14.36,-38.07 26,-55c10.92,-15.95 22.29,-31.81 28.02,-50.49a108.87,108.87 0 0 0 4.39,-26.32l-11.15,0c-1,17.89 -7.31,35.33 -17,50.84c-10.57,16.9 -23.34,32.41 -31.78,50.58c-9.17,19.75 -13.88,42.61 -9.93,64.27c7.09,38.8 47.52,58.54 56.63,96.4a80.78,80.78 0 0 1 2,12.47l-82.26,0a4.75,4.75 0 0 0 -4.82,5.22a4.75,4.75 0 0 0 4.82,5.22l82.43,0a98.09,98.09 0 0 1 -11.91,42c-9.37,17.42 -22.17,32.7 -32,49.87c-10.66,18.71 -17.33,39.79 -16.87,61.5c0.42,20.06 8.53,37.19 21.18,52.39c11.81,14.2 26,26.51 34.4,43.28a72,72 0 0 1 7,24.57l-84.23,0a4.75,4.75 0 0 0 -4.82,5.22a4.75,4.75 0 0 0 4.82,5.17l286.34,0a5.24,5.24 0 0 0 0,-10.44zm-148.17,0l-42.9,0c0,-0.34 0,-0.68 -0.09,-1c-2.12,-19.86 -11.13,-36.59 -23.94,-51.6c-11.57,-13.56 -25.48,-25.66 -33,-42.17c-9.09,-19.95 -6.24,-43.87 1.34,-63.79c7.26,-19.1 20,-35.3 31.17,-52.2s19.78,-34.64 22.05,-54.8q0.45,-4 0.58,-8l44.79,0l0,273.56zm51,0l-41,0l0,-273.56l42.83,0a105,105 0 0 0 9,39.57c8,18.06 20.51,33.5 31,50.06c11.78,18.5 20.12,38.62 20.65,60.83c0.49,20.35 -7.85,37 -21,52c-11.94,13.66 -25.5,26.26 -33.54,42.81a85.73,85.73 0 0 0 -7.91,28.29l-0.03,0z" id="svg_2"/>
  <text font-style="normal" fill="#000000" stroke-width="0" x="59.138927" y="125.429303" id="svg_3" font-size="29" font-family="'League Gothic', sans-serif" text-anchor="start" xml:space="preserve" transform="rotate(90 143.3675079345703,144.70068359375003) matrix(3.7475383281707764,0,0,3.8125,-150.170141749084,-295.13671875) " stroke="#000" font-weight="bold">VS</text>
  <text fill="#000000" stroke-width="0" x="59.138927" y="199.658811" id="svg_6" font-size="29" font-family="'League Gothic', sans-serif" text-anchor="start" xml:space="preserve" transform="rotate(90 143.36750793457028,427.71923828125006) matrix(3.7475383281707764,0,0,3.8125,-150.170141749084,-295.13671875) " stroke="#000" font-weight="bold">VS</text>
 </g>
</svg>